<svg xmlns="http://www.w3.org/2000/svg" width="23" height="23" viewBox="0 0 23 23">
    <g fill="none">
        <path fill="#246EFF" d="M19.547 23H3.452c-.918.001-1.798-.362-2.446-1.01-.648-.647-1.01-1.525-1.006-2.44V3.444c-.004-.914.358-1.791 1.006-2.438C1.654.359 2.535-.003 3.452 0h16.095c.917-.001 1.797.361 2.445 1.008.648.646 1.01 1.523 1.008 2.436V19.55c.011.917-.348 1.8-.998 2.448-.65.65-1.535 1.01-2.455 1.002z"/>
        <path fill="#FFF" d="M10.716 20c-.542-.017-1.07-.166-1.535-.432-2.167-1.135-4.005-2.77-5.35-4.757-.474-.619-.76-1.35-.831-2.114v-.066-.12-.208c.07-.764.357-1.495.83-2.114 1.346-1.987 3.184-3.622 5.35-4.757.466-.266.994-.415 1.536-.432.336.002.667.079.966.224.518.201.928.596 1.138 1.092v.039c.157.322.157.694 0 1.016-.27.458-.625.865-1.047 1.201-.055.047-.108.096-.159.148-1.029 1.049-2.348 2.305-2.297 3.78.051 1.475 1.296 2.731 2.36 3.764l.159.142c.42.338.774.745 1.046 1.201.157.322.157.695 0 1.016v.044c-.21.497-.62.89-1.137 1.093-.299.148-.63.224-.967.224l-.062.016z"/>
        <path fill="#FFF" d="M15.359 16.995c-1.753-.383-3.296-2.081-3.853-3.074-.675-1.143-.675-2.593 0-3.735 0-.028 2.131-3.186 3.995-3.186h.152c1.643.222 3.196 2.015 3.842 3.163.673 1.148.673 2.6 0 3.746 0 0-2.1 3.07-3.973 3.086-.054.007-.109.007-.163 0z"/>
    </g>
</svg>
