<svg xmlns="http://www.w3.org/2000/svg" xmlns:xlink="http://www.w3.org/1999/xlink" width="208" height="52" viewBox="0 0 208 52">
    <defs>
        <path id="prefix__a" d="M0 51.452L207.416 51.452 207.416 0 0 0z"/>
    </defs>
    <g fill="none" fill-rule="evenodd">
        <path fill="#246EFF" d="M36.067 43.031H12.53c-2.839 0-5.053-2.35-5.053-5.199V13.548c0-2.92 2.284-5.199 5.053-5.199h23.537c2.838 0 5.054 2.35 5.054 5.2v24.283c0 2.92-2.216 5.2-5.054 5.2"/>
        <path fill="#FFF" d="M22.605 36.767c-.647 0-1.36-.214-2.117-.635-3.496-1.94-6.097-4.89-7.365-7.005-.702-1.17-1.113-2.054-1.14-3.11l-.002-.1c-.003-.06-.006-.12-.003-.179-.003-.081 0-.142.003-.2l.003-.1c.026-1.056.437-1.941 1.139-3.11 1.268-2.116 3.868-5.066 7.365-7.006.758-.421 1.47-.634 2.117-.634.639 0 1.07.205 1.327.329l.036.017c.79.375 1.32.917 1.576 1.612l.023.06c.088.22.294.735-.02 1.498-.263.645-1.03 1.373-1.441 1.764-.092.09-.17.163-.221.216-1.46 1.503-3.274 3.374-3.246 5.546-.028 2.165 1.787 4.037 3.246 5.54.052.053.129.127.222.215.41.392 1.177 1.12 1.44 1.764.314.764.108 1.279.02 1.498l-.023.06c-.255.694-.785 1.237-1.575 1.613l-.037.018c-.258.122-.688.328-1.327.328"/>
        <path fill="#FFF" d="M29.29 32.876c-2.612-.557-4.917-3.015-5.75-4.458-1.663-2.88-.069-5.304 0-5.406.03-.045 3.183-4.616 5.958-4.616.081 0 .156.004.23.014 2.448.323 4.768 2.919 5.73 4.584 1.663 2.88.07 5.326.002 5.429-.028.039-3.16 4.44-5.932 4.469 0 0-.14.005-.238-.016"/>
        <path fill="#222" d="M61.082 33.727L58.748 33.727 53.166 25.988 51.564 27.441 51.564 33.727 49.585 33.727 49.585 17.518 51.564 17.518 51.564 25.512 52.919 23.971 58.522 17.518 60.834 17.518 54.608 24.581zM64.24 21.554v7.838c0 .983.212 1.712.64 2.19.425.476 1.087.714 1.983.714 1.211 0 2.093-.347 2.646-1.042.551-.695.828-1.814.828-3.359v-6.34h1.946v12.171h-1.59l-.28-1.607h-.098c-.35.584-.849 1.035-1.495 1.352-.645.318-1.394.477-2.248.477-1.419 0-2.489-.35-3.209-1.053-.72-.702-1.082-1.825-1.082-3.37v-7.97h1.958z"/>
        <mask id="prefix__b" fill="#fff">
            <use xlink:href="#prefix__a"/>
        </mask>
        <path fill="#222" d="M75.616 33.726h1.936V21.554h-1.936v12.172zm-.15-15.465c0-.443.109-.765.328-.964.219-.2.489-.3.812-.3.301 0 .565.1.791.3.225.2.338.521.338.964 0 .437-.113.758-.338.965-.226.207-.49.31-.791.31-.323 0-.593-.103-.812-.31-.219-.207-.328-.528-.328-.965zM82.791 27.463L83.447 26.598 84.2 25.667 87.975 21.554 90.233 21.554 85.458 26.754 90.566 33.727 88.233 33.727 84.135 28.05 82.791 29.259 82.791 33.727 80.876 33.727 80.876 16.477 82.791 16.477 82.791 25.49 82.705 27.463zM95.686 32.34c1.083 0 1.934-.3 2.554-.902.62-.603.93-1.458.93-2.567v-1.097l-1.742.077c-1.355.052-2.343.274-2.963.665-.62.392-.93 1.009-.93 1.852 0 .636.188 1.123.565 1.463.376.34.905.51 1.586.51zm3.99 1.387l-.376-1.73h-.087c-.588.76-1.173 1.277-1.758 1.547-.584.27-1.321.404-2.21.404-1.162 0-2.072-.314-2.731-.942-.66-.628-.99-1.515-.99-2.661 0-2.468 1.889-3.761 5.668-3.88l2-.077v-.721c0-.924-.193-1.605-.581-2.045-.387-.44-1.007-.66-1.86-.66-.624 0-1.214.096-1.77.288-.555.193-1.077.407-1.564.643l-.592-1.496c.595-.326 1.244-.58 1.947-.765.703-.185 1.398-.277 2.086-.277 1.427 0 2.488.325 3.183.975.696.65 1.044 1.685 1.044 3.104v8.293h-1.41zM114.12 25.556c0-3.48-1.49-5.222-4.474-5.222h-1.775V30.89h1.431c3.212 0 4.818-1.778 4.818-5.333m3.463-.089c0 2.67-.737 4.712-2.21 6.131-1.474 1.42-3.6 2.128-6.383 2.128h-4.452V17.518h4.936c2.567 0 4.56.7 5.98 2.096 1.42 1.397 2.13 3.348 2.13 5.853M125.246 23.505c-.696 0-1.241.227-1.635.682-.394.454-.62 1.1-.678 1.934h4.604c-.015-.835-.227-1.48-.635-1.934-.408-.455-.961-.682-1.656-.682m.462 10.443c-1.936 0-3.448-.55-4.538-1.652-1.09-1.1-1.635-2.66-1.635-4.678 0-2.077.504-3.683 1.51-4.817 1.009-1.135 2.4-1.702 4.18-1.702 1.699 0 3.02.5 3.968 1.497.946.997 1.419 2.376 1.419 4.135v1.641h-7.754c.036.961.312 1.711.828 2.25.517.54 1.24.81 2.173.81.724 0 1.408-.078 2.054-.234.645-.154 1.319-.402 2.022-.742v2.616c-.574.296-1.187.516-1.84.66-.652.144-1.448.216-2.387.216M141.536 30.046c0 1.27-.43 2.239-1.285 2.905-.857.665-2.14.997-3.845.997-.875 0-1.62-.061-2.237-.183-.617-.121-1.194-.301-1.732-.537v-2.794c.61.296 1.296.543 2.06.743.764.2 1.436.299 2.017.299 1.189 0 1.785-.355 1.785-1.064 0-.266-.08-.482-.237-.65-.158-.165-.43-.353-.817-.564-.387-.211-.904-.456-1.55-.737-.924-.4-1.603-.77-2.037-1.11-.434-.34-.75-.73-.946-1.168-.197-.44-.296-.982-.296-1.625 0-1.101.414-1.952 1.242-2.555.828-.602 2.002-.903 3.522-.903 1.448 0 2.857.325 4.227.975l-.99 2.439c-.602-.266-1.165-.484-1.688-.654-.524-.17-1.058-.255-1.603-.255-.967 0-1.451.27-1.451.809 0 .303.155.566.467.787.312.222.995.55 2.049.987.939.392 1.628.758 2.065 1.098.437.34.76.73.968 1.175.208.443.312.972.312 1.585M143.798 33.726h3.28V21.331h-3.28v12.395zm-.14-15.598c0-1.1.595-1.652 1.785-1.652s1.786.551 1.786 1.652c0 .525-.149.933-.447 1.225-.297.292-.744.438-1.339.438-1.19 0-1.785-.554-1.785-1.663zM155.173 31.299c.882 0 1.513-.261 1.893-.782.379-.521.569-1.365.569-2.533v-.41c0-1.323-.198-2.275-.596-2.855-.398-.58-1.038-.87-1.92-.87-1.542 0-2.312 1.249-2.312 3.747 0 1.242.192 2.169.575 2.783.384.613.98.92 1.791.92zm5.528 2.45c0 1.78-.504 3.132-1.511 4.052-1.008.92-2.508 1.38-4.501 1.38-1.757 0-3.255-.244-4.495-.732v-2.705c1.455.636 3.018.954 4.688.954 1.685 0 2.528-.94 2.528-2.816v-.244l.096-1.52h-.096c-.767 1.22-1.904 1.83-3.409 1.83-1.441 0-2.558-.572-3.35-1.718-.793-1.145-1.189-2.705-1.189-4.678 0-2.033.411-3.616 1.232-4.751.82-1.134 1.952-1.701 3.393-1.701 1.477 0 2.638.606 3.484 1.818h.086l.269-1.586h2.775v12.417zM174.783 33.727h-3.28v-7.24c0-.893-.155-1.564-.463-2.011-.308-.447-.8-.671-1.473-.671-.918 0-1.581.316-1.99.948-.408.631-.612 1.678-.612 3.142v5.832h-3.281V21.332h2.506l.44 1.585h.184c.365-.599.869-1.05 1.51-1.358.643-.306 1.372-.46 2.189-.46 1.398 0 2.459.39 3.184 1.17.724.78 1.086 1.905 1.086 3.376v8.082zM182.778 23.505c-.696 0-1.241.227-1.635.682-.394.454-.62 1.1-.678 1.934h4.604c-.015-.835-.227-1.48-.635-1.934-.408-.455-.961-.682-1.656-.682m.462 10.443c-1.936 0-3.448-.55-4.538-1.652-1.09-1.1-1.635-2.66-1.635-4.678 0-2.077.504-3.683 1.511-4.817 1.008-1.135 2.4-1.702 4.179-1.702 1.699 0 3.021.5 3.968 1.497.946.997 1.419 2.376 1.419 4.135v1.641h-7.754c.036.961.312 1.711.828 2.25.517.54 1.241.81 2.173.81.724 0 1.408-.078 2.054-.234.645-.154 1.319-.402 2.022-.742v2.616c-.574.296-1.187.516-1.839.66-.653.144-1.449.216-2.388.216M197.267 21.1c.444 0 .813.032 1.107.1l-.247 3.17c-.265-.075-.588-.111-.968-.111-1.047 0-1.862.277-2.446.831-.585.555-.877 1.33-.877 2.329v6.308h-3.28V21.332h2.484l.484 2.084h.16c.375-.695.878-1.255 1.513-1.68.634-.425 1.324-.637 2.07-.637" mask="url(#prefix__b)"/>
    </g>
</svg>
